<?xml version="1.0" encoding="UTF-8" standalone="no"?>
<!-- Created with Inkscape (http://www.inkscape.org/) -->

<svg
   width="64mm"
   height="101.56771mm"
   viewBox="0 0 64 101.56771"
   version="1.1"
   id="svg7812"
   inkscape:version="1.2 (dc2aedaf03, 2022-05-15)"
   sodipodi:docname="green-draw-two_2.svg"
   xmlns:inkscape="http://www.inkscape.org/namespaces/inkscape"
   xmlns:sodipodi="http://sodipodi.sourceforge.net/DTD/sodipodi-0.dtd"
   xmlns="http://www.w3.org/2000/svg"
   xmlns:svg="http://www.w3.org/2000/svg">
  <sodipodi:namedview
     id="namedview7814"
     pagecolor="#ffffff"
     bordercolor="#666666"
     borderopacity="1.0"
     inkscape:showpageshadow="2"
     inkscape:pageopacity="0.0"
     inkscape:pagecheckerboard="0"
     inkscape:deskcolor="#d1d1d1"
     inkscape:document-units="mm"
     showgrid="false"
     inkscape:zoom="1.5287038"
     inkscape:cx="82.095694"
     inkscape:cy="191.0115"
     inkscape:window-width="1920"
     inkscape:window-height="1017"
     inkscape:window-x="-8"
     inkscape:window-y="-8"
     inkscape:window-maximized="1"
     inkscape:current-layer="layer1" />
  <defs
     id="defs7809" />
  <g
     inkscape:label="Layer 1"
     inkscape:groupmode="layer"
     id="layer1"
     transform="translate(-284.18234,-137.53206)">
    <path
       id="rect2533"
       style="fill:#28f200;stroke-width:4.99999;stroke-linecap:round;stroke-linejoin:round;stroke-miterlimit:0;stroke-dashoffset:117.165;paint-order:markers fill stroke"
       d="m 289.18234,137.53206 h 54 c 2.77,0 5,2.23 5,5 v 91.56771 c 0,2.77 -2.23,5 -5,5 h -54 c -2.77,0 -5,-2.23 -5,-5 v -91.56771 c 0,-2.77 2.23,-5 5,-5 z" />
    <g
       id="g89461"
       transform="translate(283.55062,59.779311)"
       style="fill:#ffffff;fill-opacity:1">
      <path
         style="color:#000000;fill:#ffffff;fill-opacity:1;stroke:none;stroke-width:0.1;stroke-linecap:round;stroke-linejoin:round;stroke-miterlimit:0;stroke-dasharray:none;stroke-dashoffset:117.165;stroke-opacity:1;paint-order:markers fill stroke"
         d="m 24.941748,125.42332 h 6.681641 c 2.196666,0 3.990234,1.79533 3.990234,3.99219 v 11.90234 c 0,2.19686 -1.793377,3.98828 -3.990234,3.98828 h -6.681641 c -2.196857,0 -3.992187,-1.79161 -3.992187,-3.98828 v -11.90234 c 0,-2.19667 1.795521,-3.99219 3.992187,-3.99219 z m 0,1.29883 c -1.496668,0 -2.691406,1.19669 -2.691406,2.69336 v 11.90234 c 0,1.49667 1.195086,2.68945 2.691406,2.68945 h 6.681641 c 1.496321,0 2.689453,-1.19313 2.689453,-2.68945 v -11.90234 c 0,-1.49632 -1.192786,-2.69336 -2.689453,-2.69336 z"
         id="path89457"
         sodipodi:nodetypes="ssssssssssssssssss" />
      <path
         id="path89459"
         style="color:#000000;fill:#ffffff;fill-opacity:1;stroke:none;stroke-width:0.1;stroke-linecap:round;stroke-linejoin:round;stroke-miterlimit:0;stroke-dasharray:none;stroke-dashoffset:117.165;stroke-opacity:1;paint-order:markers fill stroke"
         d="m 33.641687,111.76707 c -2.196664,0 -3.992004,1.79586 -3.992004,3.99252 v 8.96276 h 1.300695 v -8.96276 c 0,-1.49667 1.194643,-2.69337 2.691309,-2.69337 h 6.681763 c 1.496665,0 2.689758,1.19705 2.689758,2.69337 v 11.90212 c 0,1.49632 -1.193439,2.68976 -2.689758,2.68976 h -4.010608 v 1.29863 h 4.010608 c 2.196855,0 3.990454,-1.79153 3.990454,-3.98839 v -11.90212 c 0,-2.19685 -1.79379,-3.99252 -3.990454,-3.99252 z m -3.992004,13.65602 v 1.29914 h 1.300695 v -1.29914 z m 0,2.00039 v 0.23823 c 0,2.18731 1.780036,3.97269 3.964099,3.98787 v -1.29863 c -1.483144,-0.0148 -2.663404,-1.20196 -2.663404,-2.68924 v -0.23823 z m 4.663281,2.92799 v 1.29863 h 1.300696 v -1.29863 z" />
    </g>
    <g
       aria-label="+2"
       id="text2549"
       style="font-size:11.9944px;line-height:1.25;font-family:'Century Gothic';-inkscape-font-specification:'Century Gothic';fill:#ffffff;stroke-width:0.264583">
      <path
         d="m 291.74172,146.65512 v -2.54178 h 0.80236 v 2.54178 h 2.5652 v 0.80236 h -2.5652 v 2.54178 h -0.80236 v -2.54178 h -2.55936 v -0.80236 z"
         id="path12628" />
      <path
         d="m 297.16497,145.44865 h -0.82579 q 0.0351,-1.27674 0.84921,-2.09667 0.81993,-0.81993 2.02054,-0.81993 1.1889,0 1.92098,0.76722 0.73794,0.76722 0.73794,1.8097 0,0.73208 -0.3514,1.37631 -0.3514,0.63837 -1.3646,1.73357 l -2.14353,2.31337 h 3.97666 v 0.83164 h -5.85078 l 3.29143,-3.55498 q 1.00148,-1.07177 1.30017,-1.58715 0.30455,-0.52124 0.30455,-1.09519 0,-0.72622 -0.54467,-1.24747 -0.53881,-0.52709 -1.3236,-0.52709 -0.82579,0 -1.37631,0.55052 -0.54467,0.55053 -0.6208,1.54615 z"
         id="path12630" />
    </g>
    <g
       aria-label="+2"
       id="text2557"
       style="font-size:11.9944px;line-height:1.25;font-family:'Century Gothic';-inkscape-font-specification:'Century Gothic';fill:#ffffff;stroke-width:0.264583">
      <path
         d="m 332.93907,229.39102 v -2.54178 h 0.80236 v 2.54178 h 2.56521 v 0.80236 h -2.56521 v 2.54178 h -0.80236 v -2.54178 h -2.55935 v -0.80236 z"
         id="path12623" />
      <path
         d="m 338.36232,228.18455 h -0.82578 q 0.0351,-1.27674 0.84921,-2.09667 0.81993,-0.81993 2.02054,-0.81993 1.1889,0 1.92098,0.76722 0.73793,0.76722 0.73793,1.8097 0,0.73208 -0.35139,1.37631 -0.3514,0.63837 -1.3646,1.73357 l -2.14353,2.31337 h 3.97666 v 0.83164 h -5.85079 l 3.29144,-3.55498 q 1.00148,-1.07176 1.30017,-1.58715 0.30455,-0.52124 0.30455,-1.09519 0,-0.72622 -0.54467,-1.24746 -0.53881,-0.5271 -1.3236,-0.5271 -0.82579,0 -1.37631,0.55052 -0.54467,0.55053 -0.62081,1.54615 z"
         id="path12625" />
    </g>
  </g>
</svg>
