<?xml version="1.0" encoding="UTF-8" standalone="no"?>
<!-- Created with Inkscape (http://www.inkscape.org/) -->

<svg
   width="64mm"
   height="101.56771mm"
   viewBox="0 0 64 101.56771"
   version="1.1"
   id="svg7812"
   inkscape:version="1.2 (dc2aedaf03, 2022-05-15)"
   sodipodi:docname="red-8_2.svg"
   xmlns:inkscape="http://www.inkscape.org/namespaces/inkscape"
   xmlns:sodipodi="http://sodipodi.sourceforge.net/DTD/sodipodi-0.dtd"
   xmlns="http://www.w3.org/2000/svg"
   xmlns:svg="http://www.w3.org/2000/svg">
  <sodipodi:namedview
     id="namedview7814"
     pagecolor="#ffffff"
     bordercolor="#666666"
     borderopacity="1.0"
     inkscape:showpageshadow="2"
     inkscape:pageopacity="0.0"
     inkscape:pagecheckerboard="0"
     inkscape:deskcolor="#d1d1d1"
     inkscape:document-units="mm"
     showgrid="false"
     inkscape:zoom="1.0809568"
     inkscape:cx="33.766382"
     inkscape:cy="211.84935"
     inkscape:window-width="1920"
     inkscape:window-height="1017"
     inkscape:window-x="-8"
     inkscape:window-y="-8"
     inkscape:window-maximized="1"
     inkscape:current-layer="layer1" />
  <defs
     id="defs7809" />
  <g
     inkscape:label="Layer 1"
     inkscape:groupmode="layer"
     id="layer1"
     transform="translate(-237.77826,-98.275597)">
    <path
       id="rect8270"
       style="fill:#ff1e00;stroke-width:4.99999;stroke-linecap:round;stroke-linejoin:round;stroke-miterlimit:0;stroke-dashoffset:117.165;paint-order:markers fill stroke"
       d="m 242.77826,98.275597 h 54 c 2.77,0 5,2.230003 5,5.000003 v 91.56771 c 0,2.77 -2.23,5 -5,5 h -54 c -2.77,0 -5,-2.23 -5,-5 V 103.2756 c 0,-2.77 2.23,-5.000003 5,-5.000003 z" />
    <g
       aria-label="8"
       id="text8274"
       style="font-size:11.9944px;line-height:1.25;font-family:'Century Gothic';-inkscape-font-specification:'Century Gothic';fill:#ffffff;stroke-width:0.264583">
      <path
         d="m 247.00676,107.3811 q 0.87264,0.43339 1.24746,0.98977 0.38069,0.55638 0.38069,1.26503 0,0.99563 -0.65009,1.757 -0.7965,0.9312 -2.27824,0.9312 -1.42902,0 -2.16695,-0.81407 -0.73794,-0.81993 -0.73794,-1.80385 0,-0.72036 0.38654,-1.29431 0.38654,-0.57981 1.28846,-1.03077 -0.63252,-0.32797 -0.94878,-0.81408 -0.31625,-0.4861 -0.31625,-1.04248 0,-0.56223 0.33382,-1.09519 0.33969,-0.53881 0.93121,-0.84336 0.59738,-0.3104 1.28846,-0.3104 0.67352,0 1.24747,0.3104 0.57395,0.31041 0.89606,0.84336 0.32797,0.53296 0.32797,1.11862 0,0.58566 -0.3104,1.04248 -0.30454,0.45682 -0.91949,0.79065 z m -1.28261,-3.26801 q -0.70865,0 -1.17718,0.42168 -0.46267,0.41582 -0.46267,0.99563 0,0.57395 0.49781,1.04248 0.50367,0.46268 1.17133,0.46268 0.42753,0 0.80821,-0.21084 0.38069,-0.21084 0.59153,-0.57395 0.21669,-0.36897 0.21669,-0.73794 0,-0.52124 -0.42168,-0.96049 -0.42168,-0.43925 -1.22404,-0.43925 z m 0.041,3.7014 q -0.89021,0 -1.49344,0.57981 -0.60324,0.57395 -0.60324,1.34117 0,0.47439 0.2577,0.89606 0.25769,0.42168 0.72036,0.65009 0.46268,0.22841 1.07177,0.22841 0.94292,0 1.4993,-0.55638 0.55638,-0.55638 0.55638,-1.30018 0,-0.72036 -0.59152,-1.27674 -0.58567,-0.56224 -1.41731,-0.56224 z"
         id="path22593" />
    </g>
    <g
       aria-label="8"
       id="text8278"
       style="font-size:11.9944px;line-height:1.25;font-family:'Century Gothic';-inkscape-font-specification:'Century Gothic';text-align:end;text-anchor:end;fill:#ffffff;stroke-width:0.264583">
      <path
         d="m 295.12668,189.90031 q 0.87264,0.43339 1.24747,0.98977 0.38068,0.55638 0.38068,1.26504 0,0.99562 -0.65009,1.75699 -0.7965,0.9312 -2.27823,0.9312 -1.42902,0 -2.16696,-0.81407 -0.73793,-0.81993 -0.73793,-1.80385 0,-0.72036 0.38653,-1.29431 0.38654,-0.57981 1.28847,-1.03077 -0.63252,-0.32797 -0.94878,-0.81407 -0.31626,-0.48611 -0.31626,-1.04249 0,-0.56223 0.33383,-1.09519 0.33968,-0.53881 0.93121,-0.84335 0.59737,-0.31041 1.28846,-0.31041 0.67351,0 1.24746,0.31041 0.57395,0.3104 0.89607,0.84335 0.32797,0.53296 0.32797,1.11862 0,0.58566 -0.3104,1.04248 -0.30455,0.45682 -0.9195,0.79065 z m -1.2826,-3.26801 q -0.70865,0 -1.17719,0.42168 -0.46267,0.41582 -0.46267,0.99563 0,0.57395 0.49781,1.04248 0.50368,0.46268 1.17133,0.46268 0.42754,0 0.80822,-0.21084 0.38068,-0.21084 0.59152,-0.57395 0.2167,-0.36897 0.2167,-0.73794 0,-0.52124 -0.42168,-0.96049 -0.42168,-0.43925 -1.22404,-0.43925 z m 0.041,3.7014 q -0.89021,0 -1.49345,0.57981 -0.60323,0.57395 -0.60323,1.34117 0,0.47439 0.25769,0.89606 0.25769,0.42168 0.72037,0.65009 0.46267,0.22841 1.07176,0.22841 0.94292,0 1.4993,-0.55638 0.55638,-0.55638 0.55638,-1.30017 0,-0.72037 -0.59152,-1.27675 -0.58566,-0.56224 -1.4173,-0.56224 z"
         id="path22590" />
    </g>
    <g
       aria-label="8"
       id="text8384"
       style="font-size:42.3333px;line-height:1.25;font-family:'Century Gothic';-inkscape-font-specification:'Century Gothic';text-align:center;text-anchor:middle;fill:#ffffff;stroke-width:0.264583">
      <path
         d="m 274.38777,147.19911 q 3.07992,1.52962 4.40283,3.49332 1.34359,1.96371 1.34359,4.46484 0,3.514 -2.29443,6.20117 -2.8112,3.28662 -8.04085,3.28662 -5.04362,0 -7.64811,-2.87321 -2.60449,-2.89388 -2.60449,-6.36653 0,-2.54248 1.36426,-4.56819 1.36426,-2.04639 4.54752,-3.63802 -2.23242,-1.15755 -3.34863,-2.87321 -1.11621,-1.71565 -1.11621,-3.67936 0,-1.98437 1.17822,-3.86539 1.1989,-1.90169 3.28662,-2.97656 2.1084,-1.09554 4.54753,-1.09554 2.37711,0 4.40282,1.09554 2.02572,1.09554 3.1626,2.97656 1.15755,1.88102 1.15755,3.94807 0,2.06706 -1.09554,3.67936 -1.07487,1.61231 -3.24528,2.79053 z m -4.52685,-11.53417 q -2.50114,0 -4.15478,1.48828 -1.63297,1.46761 -1.63297,3.51399 0,2.02572 1.75699,3.67936 1.77767,1.63298 4.13411,1.63298 1.50895,0 2.85254,-0.74414 1.34359,-0.74414 2.08773,-2.02572 0.76481,-1.30224 0.76481,-2.60449 0,-1.83968 -1.48828,-3.38997 -1.48828,-1.55029 -4.32015,-1.55029 z m 0.1447,13.06379 q -3.14193,0 -5.271,2.04639 -2.12906,2.02571 -2.12906,4.73355 0,1.67432 0.9095,3.1626 0.9095,1.48828 2.54248,2.29443 1.63297,0.80615 3.78271,0.80615 3.32796,0 5.29166,-1.9637 1.96371,-1.9637 1.96371,-4.58886 0,-2.54248 -2.08773,-4.50619 -2.06706,-1.98437 -5.00227,-1.98437 z"
         id="path22587" />
    </g>
  </g>
</svg>
