<?xml version="1.0" encoding="UTF-8" standalone="no"?>
<!-- Created with Inkscape (http://www.inkscape.org/) -->

<svg
   width="64mm"
   height="101.56771mm"
   viewBox="0 0 64 101.56771"
   version="1.1"
   id="svg7812"
   inkscape:version="1.2 (dc2aedaf03, 2022-05-15)"
   sodipodi:docname="red-0_1.svg"
   xmlns:inkscape="http://www.inkscape.org/namespaces/inkscape"
   xmlns:sodipodi="http://sodipodi.sourceforge.net/DTD/sodipodi-0.dtd"
   xmlns="http://www.w3.org/2000/svg"
   xmlns:svg="http://www.w3.org/2000/svg">
  <sodipodi:namedview
     id="namedview7814"
     pagecolor="#ffffff"
     bordercolor="#666666"
     borderopacity="1.0"
     inkscape:showpageshadow="2"
     inkscape:pageopacity="0.0"
     inkscape:pagecheckerboard="0"
     inkscape:deskcolor="#d1d1d1"
     inkscape:document-units="mm"
     showgrid="false"
     inkscape:zoom="1.0809568"
     inkscape:cx="32.841275"
     inkscape:cy="211.84935"
     inkscape:window-width="1920"
     inkscape:window-height="1017"
     inkscape:window-x="-8"
     inkscape:window-y="-8"
     inkscape:window-maximized="1"
     inkscape:current-layer="layer1" />
  <defs
     id="defs7809" />
  <g
     inkscape:label="Layer 1"
     inkscape:groupmode="layer"
     id="layer1"
     transform="translate(-237.77826,-98.275597)">
    <path
       id="rect8270"
       style="fill:#eb2c13;stroke-width:4.99999;stroke-linecap:round;stroke-linejoin:round;stroke-miterlimit:0;stroke-dashoffset:117.165;paint-order:markers fill stroke;fill-opacity:1"
       d="m 242.77826,98.275597 h 54 c 2.77,0 5,2.230003 5,5.000003 v 91.56771 c 0,2.77 -2.23,5 -5,5 h -54 c -2.77,0 -5,-2.23 -5,-5 V 103.2756 c 0,-2.77 2.23,-5.000003 5,-5.000003 z" />
    <g
       aria-label="0"
       id="text8274"
       style="font-size:11.9944px;line-height:1.25;font-family:'Century Gothic';-inkscape-font-specification:'Century Gothic';fill:#ffffff;stroke-width:0.264583">
      <path
         d="m 242.77826,107.80278 q 0,-1.70429 0.36312,-2.63549 0.36896,-0.93121 1.03662,-1.41145 0.66766,-0.48025 1.49345,-0.48025 0.83749,0 1.51687,0.4861 0.67937,0.48025 1.07176,1.44659 0.39825,0.96635 0.39825,2.5945 0,1.62229 -0.39239,2.58277 -0.38654,0.96049 -1.07177,1.45245 -0.68523,0.4861 -1.52272,0.4861 -0.82579,0 -1.48759,-0.47439 -0.6618,-0.47438 -1.03663,-1.41145 -0.36897,-0.94292 -0.36897,-2.63548 z m 0.81408,0.0176 q 0,1.4583 0.25769,2.20795 0.26355,0.74379 0.77308,1.13033 0.50952,0.38654 1.07762,0.38654 0.57395,0 1.07176,-0.37483 0.49782,-0.38068 0.75551,-1.13618 0.32212,-0.9195 0.32212,-2.21381 0,-1.30018 -0.28698,-2.12596 -0.28698,-0.83165 -0.7965,-1.21233 -0.50367,-0.38654 -1.06591,-0.38654 -0.57395,0 -1.07762,0.38654 -0.50367,0.38068 -0.76722,1.13033 -0.26355,0.7438 -0.26355,2.20796 z"
         id="path15669" />
    </g>
    <g
       aria-label="0"
       id="text8278"
       style="font-size:11.9944px;line-height:1.25;font-family:'Century Gothic';-inkscape-font-specification:'Century Gothic';text-align:end;text-anchor:end;fill:#ffffff;stroke-width:0.264583">
      <path
         d="m 290.89819,190.32199 q 0,-1.70429 0.36311,-2.63549 0.36897,-0.93121 1.03663,-1.41145 0.66765,-0.48025 1.49344,-0.48025 0.8375,0 1.51687,0.4861 0.67937,0.48025 1.07177,1.44659 0.39825,0.96635 0.39825,2.5945 0,1.62229 -0.3924,2.58278 -0.38654,0.96048 -1.07176,1.45244 -0.68523,0.4861 -1.52273,0.4861 -0.82579,0 -1.48759,-0.47438 -0.6618,-0.47439 -1.03662,-1.41146 -0.36897,-0.94291 -0.36897,-2.63548 z m 0.81407,0.0176 q 0,1.4583 0.25769,2.20795 0.26355,0.74379 0.77308,1.13033 0.50953,0.38654 1.07762,0.38654 0.57395,0 1.07177,-0.37483 0.49781,-0.38068 0.7555,-1.13618 0.32212,-0.9195 0.32212,-2.21381 0,-1.30018 -0.28698,-2.12596 -0.28697,-0.83165 -0.7965,-1.21233 -0.50367,-0.38654 -1.06591,-0.38654 -0.57395,0 -1.07762,0.38654 -0.50367,0.38068 -0.76722,1.13033 -0.26355,0.7438 -0.26355,2.20796 z"
         id="path15666" />
    </g>
    <g
       aria-label="0"
       id="text8384"
       style="font-size:42.3333px;line-height:1.25;font-family:'Century Gothic';-inkscape-font-specification:'Century Gothic';text-align:center;text-anchor:middle;fill:#ffffff;stroke-width:0.264583">
      <path
         d="m 259.46363,148.68739 q 0,-6.01513 1.28158,-9.30175 1.30224,-3.28662 3.65868,-4.98161 2.35645,-1.69498 5.271,-1.69498 2.95589,0 5.35367,1.71565 2.39779,1.69499 3.78271,5.10563 1.4056,3.41064 1.4056,9.15706 0,5.72574 -1.38493,9.11572 -1.36425,3.38997 -3.78271,5.12629 -2.41845,1.71566 -5.37434,1.71566 -2.91455,0 -5.25033,-1.67432 -2.33577,-1.67431 -3.65868,-4.9816 -1.30225,-3.32796 -1.30225,-9.30175 z m 2.87321,0.062 q 0,5.14697 0.9095,7.7928 0.93018,2.62516 2.72852,3.98942 1.79833,1.36426 3.80338,1.36426 2.02571,0 3.78271,-1.32292 1.757,-1.34359 2.6665,-4.01009 1.13688,-3.24528 1.13688,-7.81347 0,-4.58886 -1.01285,-7.50341 -1.01286,-2.93522 -2.8112,-4.27881 -1.77767,-1.36425 -3.76204,-1.36425 -2.02572,0 -3.80338,1.36425 -1.77767,1.34359 -2.70785,3.98942 -0.93017,2.62516 -0.93017,7.7928 z"
         id="path15663" />
    </g>
  </g>
</svg>
