<?xml version="1.0" encoding="UTF-8" standalone="no"?>
<!-- Created with Inkscape (http://www.inkscape.org/) -->

<svg
   width="64mm"
   height="101.56771mm"
   viewBox="0 0 64 101.56771"
   version="1.1"
   id="svg7812"
   inkscape:version="1.2 (dc2aedaf03, 2022-05-15)"
   sodipodi:docname="wild_4.svg"
   xmlns:inkscape="http://www.inkscape.org/namespaces/inkscape"
   xmlns:sodipodi="http://sodipodi.sourceforge.net/DTD/sodipodi-0.dtd"
   xmlns="http://www.w3.org/2000/svg"
   xmlns:svg="http://www.w3.org/2000/svg">
  <sodipodi:namedview
     id="namedview7814"
     pagecolor="#ffffff"
     bordercolor="#666666"
     borderopacity="1.0"
     inkscape:showpageshadow="2"
     inkscape:pageopacity="0.0"
     inkscape:pagecheckerboard="0"
     inkscape:deskcolor="#d1d1d1"
     inkscape:document-units="mm"
     showgrid="false"
     inkscape:zoom="1.0809568"
     inkscape:cx="18.96468"
     inkscape:cy="197.04765"
     inkscape:window-width="1920"
     inkscape:window-height="1017"
     inkscape:window-x="-8"
     inkscape:window-y="-8"
     inkscape:window-maximized="1"
     inkscape:current-layer="layer1" />
  <defs
     id="defs7809" />
  <g
     inkscape:label="Layer 1"
     inkscape:groupmode="layer"
     id="layer1"
     transform="translate(-219.36963,-154.95566)">
    <path
       id="rect2559"
       style="stroke-width:4.99999;stroke-linecap:round;stroke-linejoin:round;stroke-miterlimit:0;stroke-dashoffset:117.165;paint-order:markers fill stroke"
       d="m 224.36963,154.95566 h 54 c 2.77,0 5,2.23 5,5 v 91.56771 c 0,2.77 -2.23,5 -5,5 h -54 c -2.77,0 -5,-2.23 -5,-5 v -91.56771 c 0,-2.77 2.23,-5 5,-5 z" />
    <g
       id="g5538"
       transform="translate(101.70894,141.96874)">
      <path
         id="path2669"
         style="fill:none;stroke:#0d71ff;stroke-width:2.4;stroke-linecap:round;stroke-linejoin:round;stroke-miterlimit:0;stroke-dashoffset:117.165;paint-order:markers fill stroke"
         transform="rotate(90)"
         d="m 81.353795,-147.81264 a 17.67988,17.67988 0 0 1 -15.734978,15.73498" />
      <path
         id="path2671"
         style="fill:none;stroke:#ffd500;stroke-width:2.4;stroke-linecap:round;stroke-linejoin:round;stroke-miterlimit:0;stroke-dashoffset:117.165;paint-order:markers fill stroke"
         transform="scale(-1)"
         d="m -132.07765,-61.92272 a 17.67988,17.67988 0 0 1 -15.73497,15.734977" />
      <path
         id="path2673"
         style="fill:none;stroke:#5bff0d;stroke-width:2.4;stroke-linecap:round;stroke-linejoin:round;stroke-miterlimit:0;stroke-dashoffset:117.165;paint-order:markers fill stroke"
         transform="rotate(-90)"
         d="M -46.187743,151.50873 A 17.67988,17.67988 0 0 1 -61.922721,167.2437" />
      <path
         id="path2675"
         style="fill:none;stroke:#ff1e00;stroke-width:2.4;stroke-linecap:round;stroke-linejoin:round;stroke-miterlimit:0;stroke-dashoffset:117.165;paint-order:markers fill stroke"
         d="M 167.24372,65.618822 A 17.67988,17.67988 0 0 1 151.50874,81.353799" />
    </g>
    <g
       id="g5548"
       transform="matrix(0.27,0,0,0.27,189.03266,147.80896)">
      <path
         id="path5540"
         style="fill:none;stroke:#0d71ff;stroke-width:2.4;stroke-linecap:round;stroke-linejoin:round;stroke-miterlimit:0;stroke-dashoffset:117.165;paint-order:markers fill stroke"
         transform="rotate(90)"
         d="m 81.353795,-147.81264 a 17.67988,17.67988 0 0 1 -15.734978,15.73498" />
      <path
         id="path5542"
         style="fill:none;stroke:#ffd500;stroke-width:2.4;stroke-linecap:round;stroke-linejoin:round;stroke-miterlimit:0;stroke-dashoffset:117.165;paint-order:markers fill stroke"
         transform="scale(-1)"
         d="m -132.07765,-61.92272 a 17.67988,17.67988 0 0 1 -15.73497,15.734977" />
      <path
         id="path5544"
         style="fill:none;stroke:#5bff0d;stroke-width:2.4;stroke-linecap:round;stroke-linejoin:round;stroke-miterlimit:0;stroke-dashoffset:117.165;paint-order:markers fill stroke"
         transform="rotate(-90)"
         d="M -46.187743,151.50873 A 17.67988,17.67988 0 0 1 -61.922721,167.2437" />
      <path
         id="path5546"
         style="fill:none;stroke:#ff1e00;stroke-width:2.4;stroke-linecap:round;stroke-linejoin:round;stroke-miterlimit:0;stroke-dashoffset:117.165;paint-order:markers fill stroke"
         d="M 167.24372,65.618822 A 17.67988,17.67988 0 0 1 151.50874,81.353799" />
    </g>
    <g
       id="g5558"
       transform="matrix(0.27,0,0,0.27,232.88982,229.23384)">
      <path
         id="path5550"
         style="fill:none;stroke:#0d71ff;stroke-width:2.4;stroke-linecap:round;stroke-linejoin:round;stroke-miterlimit:0;stroke-dashoffset:117.165;paint-order:markers fill stroke"
         transform="rotate(90)"
         d="m 81.353795,-147.81264 a 17.67988,17.67988 0 0 1 -15.734978,15.73498" />
      <path
         id="path5552"
         style="fill:none;stroke:#ffd500;stroke-width:2.4;stroke-linecap:round;stroke-linejoin:round;stroke-miterlimit:0;stroke-dashoffset:117.165;paint-order:markers fill stroke"
         transform="scale(-1)"
         d="m -132.07765,-61.92272 a 17.67988,17.67988 0 0 1 -15.73497,15.734977" />
      <path
         id="path5554"
         style="fill:none;stroke:#5bff0d;stroke-width:2.4;stroke-linecap:round;stroke-linejoin:round;stroke-miterlimit:0;stroke-dashoffset:117.165;paint-order:markers fill stroke"
         transform="rotate(-90)"
         d="M -46.187743,151.50873 A 17.67988,17.67988 0 0 1 -61.922721,167.2437" />
      <path
         id="path5556"
         style="fill:none;stroke:#ff1e00;stroke-width:2.4;stroke-linecap:round;stroke-linejoin:round;stroke-miterlimit:0;stroke-dashoffset:117.165;paint-order:markers fill stroke"
         d="M 167.24372,65.618822 A 17.67988,17.67988 0 0 1 151.50874,81.353799" />
    </g>
  </g>
</svg>
