<?xml version="1.0" encoding="UTF-8" standalone="no"?>
<!-- Created with Inkscape (http://www.inkscape.org/) -->

<svg
   width="64mm"
   height="101.56771mm"
   viewBox="0 0 64 101.56771"
   version="1.1"
   id="svg7812"
   inkscape:version="1.2 (dc2aedaf03, 2022-05-15)"
   sodipodi:docname="wild-draw-four_4.svg"
   xmlns:inkscape="http://www.inkscape.org/namespaces/inkscape"
   xmlns:sodipodi="http://sodipodi.sourceforge.net/DTD/sodipodi-0.dtd"
   xmlns="http://www.w3.org/2000/svg"
   xmlns:svg="http://www.w3.org/2000/svg">
  <sodipodi:namedview
     id="namedview7814"
     pagecolor="#ffffff"
     bordercolor="#666666"
     borderopacity="1.0"
     inkscape:showpageshadow="2"
     inkscape:pageopacity="0.0"
     inkscape:pagecheckerboard="0"
     inkscape:deskcolor="#d1d1d1"
     inkscape:document-units="mm"
     showgrid="false"
     inkscape:zoom="1.5287038"
     inkscape:cx="80.133249"
     inkscape:cy="211.94427"
     inkscape:window-width="1920"
     inkscape:window-height="1017"
     inkscape:window-x="-8"
     inkscape:window-y="-8"
     inkscape:window-maximized="1"
     inkscape:current-layer="layer1" />
  <defs
     id="defs7809" />
  <g
     inkscape:label="Layer 1"
     inkscape:groupmode="layer"
     id="layer1"
     transform="translate(-215.144,-153.84875)">
    <path
       id="rect184"
       style="stroke-width:4.99999;stroke-linecap:round;stroke-linejoin:round;stroke-miterlimit:0;stroke-dashoffset:117.165;paint-order:markers fill stroke"
       d="m 220.144,153.84875 h 54 c 2.77,0 5,2.23 5,5 v 91.56772 c 0,2.77 -2.23,5 -5,5 h -54 c -2.77,0 -5,-2.23 -5,-5 v -91.56772 c 0,-2.77 2.23,-5 5,-5 z" />
    <g
       aria-label="+4"
       id="text1679"
       style="font-size:11.9944px;line-height:1.25;font-family:'Century Gothic';-inkscape-font-specification:'Century Gothic';fill:#ffffff;stroke-width:0.264583">
      <path
         d="m 222.70334,162.97183 v -2.54178 h 0.80236 v 2.54178 h 2.56521 v 0.80236 h -2.56521 v 2.54179 h -0.80236 v -2.54179 h -2.55935 v -0.80236 z"
         id="path27243" />
      <path
         d="m 231.84556,158.84876 h 0.1757 v 6.00306 h 1.04248 v 0.82578 h -1.04248 v 2.00297 h -0.86093 v -2.00297 h -4.11722 z m -0.68523,6.00306 v -3.59013 l -2.53593,3.59013 z"
         id="path27245" />
    </g>
    <g
       aria-label="+4"
       id="text3185"
       style="font-size:11.9944px;line-height:1.25;font-family:'Century Gothic';-inkscape-font-specification:'Century Gothic';fill:#ffffff;stroke-width:0.264583">
      <path
         d="m 263.78359,245.70773 v -2.54178 h 0.80236 v 2.54178 h 2.5652 v 0.80236 h -2.5652 v 2.54179 h -0.80236 v -2.54179 h -2.55936 v -0.80236 z"
         id="path27238" />
      <path
         d="m 272.9258,241.58466 h 0.1757 v 6.00306 h 1.04248 v 0.82578 h -1.04248 v 2.00297 h -0.86092 v -2.00297 h -4.11722 z m -0.68522,6.00306 v -3.59012 l -2.53593,3.59012 z"
         id="path27240" />
    </g>
    <path
       style="color:#000000;fill:#ffd500;fill-opacity:1;stroke:#000000;stroke-width:0.75;stroke-linecap:round;stroke-linejoin:round;stroke-miterlimit:0;stroke-dasharray:none;stroke-dashoffset:117.165;stroke-opacity:1;paint-order:markers fill stroke"
       d="m 229.91184,205.23756 c -2.38764,0 -4.3418,1.95416 -4.3418,4.3418 v 11.90234 c 0,2.38764 1.95416,4.3418 4.3418,4.3418 h 6.68164 c 2.38763,0 4.3418,-1.95416 4.3418,-4.3418 v -11.90234 c 0,-2.38764 -1.95417,-4.3418 -4.3418,-4.3418 z m 0,2 h 6.68164 c 1.31423,0 2.3418,1.02757 2.3418,2.3418 v 11.90234 c 0,1.31423 -1.02757,2.3418 -2.3418,2.3418 h -6.68164 c -1.31423,0 -2.3418,-1.02757 -2.3418,-2.3418 v -11.90234 c 0,-1.31423 1.02757,-2.3418 2.3418,-2.3418 z"
       id="path923" />
    <path
       style="color:#000000;fill:#eb2c13;fill-opacity:1;stroke:#000000;stroke-width:0.75;stroke-linecap:round;stroke-linejoin:round;stroke-miterlimit:0;stroke-dasharray:none;stroke-dashoffset:117.165;stroke-opacity:1;paint-order:markers fill stroke"
       d="m 239.17273,190.70701 c -2.38764,0 -4.3418,1.95416 -4.3418,4.34179 v 11.90235 c 0,2.38763 1.95416,4.34179 4.3418,4.34179 h 6.68164 c 2.38763,0 4.34179,-1.95416 4.34179,-4.34179 V 195.0488 c 0,-2.38763 -1.95416,-4.34179 -4.34179,-4.34179 z m 0,2 h 6.68164 c 1.31423,0 2.34179,1.02756 2.34179,2.34179 v 11.90235 c 0,1.31423 -1.02756,2.34179 -2.34179,2.34179 h -6.68164 c -1.31423,0 -2.3418,-1.02756 -2.3418,-2.34179 V 195.0488 c 0,-1.31423 1.02757,-2.34179 2.3418,-2.34179 z"
       id="rect915" />
    <path
       style="color:#000000;fill:#28f200;fill-opacity:1;stroke:#000000;stroke-width:0.75;stroke-linecap:round;stroke-linejoin:round;stroke-miterlimit:0;stroke-dasharray:none;stroke-dashoffset:117.165;stroke-opacity:1;paint-order:markers fill stroke"
       d="m 248.43362,197.97228 c -2.38764,0 -4.3418,1.95417 -4.3418,4.3418 v 11.90234 c 0,2.38764 1.95416,4.3418 4.3418,4.3418 h 6.68164 c 2.38763,0 4.34179,-1.95416 4.34179,-4.3418 v -11.90234 c 0,-2.38763 -1.95416,-4.3418 -4.34179,-4.3418 z m 0,2 h 6.68164 c 1.31423,0 2.34179,1.02757 2.34179,2.3418 v 11.90234 c 0,1.31424 -1.02756,2.3418 -2.34179,2.3418 h -6.68164 c -1.31423,0 -2.3418,-1.02756 -2.3418,-2.3418 v -11.90234 c 0,-1.31423 1.02757,-2.3418 2.3418,-2.3418 z"
       id="path921" />
    <path
       style="color:#000000;fill:#0d71ff;fill-opacity:1;stroke:#000000;stroke-width:0.75;stroke-linecap:round;stroke-linejoin:round;stroke-miterlimit:0;stroke-dasharray:none;stroke-dashoffset:117.165;stroke-opacity:1;paint-order:markers fill stroke"
       d="m 257.6945,183.44173 c -2.38763,0 -4.34179,1.95416 -4.34179,4.3418 v 11.90234 c 0,2.38764 1.95416,4.3418 4.34179,4.3418 h 6.68164 c 2.38764,0 4.3418,-1.95416 4.3418,-4.3418 v -11.90234 c 0,-2.38764 -1.95416,-4.3418 -4.3418,-4.3418 z m 0,2 h 6.68164 c 1.31423,0 2.3418,1.02757 2.3418,2.3418 v 11.90234 c 0,1.31423 -1.02757,2.3418 -2.3418,2.3418 h -6.68164 c -1.31423,0 -2.34179,-1.02757 -2.34179,-2.3418 v -11.90234 c 0,-1.31423 1.02756,-2.3418 2.34179,-2.3418 z"
       id="path925" />
  </g>
</svg>
