<?xml version="1.0" encoding="UTF-8" standalone="no"?>
<!-- Created with Inkscape (http://www.inkscape.org/) -->

<svg
   width="64mm"
   height="101.56771mm"
   viewBox="0 0 64 101.56771"
   version="1.1"
   id="svg7812"
   xmlns="http://www.w3.org/2000/svg"
   xmlns:svg="http://www.w3.org/2000/svg">
  <defs
     id="defs7809" />
  <g
     id="layer1"
     transform="translate(-237.77826,-98.275597)">
    <path
       id="rect8270"
       style="fill:#f2ca00;fill-opacity:1;stroke-width:4.99999;stroke-linecap:round;stroke-linejoin:round;stroke-miterlimit:0;stroke-dashoffset:117.165;paint-order:markers fill stroke"
       d="m 242.77826,98.275597 h 54 c 2.77,0 5,2.230003 5,5.000003 v 91.56771 c 0,2.77 -2.23,5 -5,5 h -54 c -2.77,0 -5,-2.23 -5,-5 V 103.2756 c 0,-2.77 2.23,-5.000003 5,-5.000003 z" />
    <g
       aria-label="5"
       id="text8274"
       style="font-size:11.9944px;line-height:1.25;font-family:'Century Gothic';-inkscape-font-specification:'Century Gothic';fill:#ffffff;stroke-width:0.264583">
      <path
         d="m 248.29522,103.49229 v 0.81993 h -3.06888 l -0.42753,2.34851 q 0.56223,-0.16399 1.01319,-0.16399 1.17719,0 1.93855,0.79065 0.76722,0.78479 0.76722,2.01469 0,0.84921 -0.39239,1.55786 -0.3924,0.70866 -1.06591,1.08934 -0.66766,0.37482 -1.54615,0.37482 -1.04834,0 -1.76871,-0.63837 -0.72037,-0.64423 -0.86093,-1.66329 h 0.88436 q 0.0996,0.49782 0.33383,0.80822 0.24012,0.3104 0.63251,0.50367 0.39825,0.18741 0.83165,0.18741 0.84921,0 1.4583,-0.64423 0.60909,-0.64423 0.60909,-1.61057 0,-0.87264 -0.55052,-1.41731 -0.55053,-0.54467 -1.47002,-0.54467 -0.76136,0 -1.84484,0.46268 l 0.7965,-4.27535 z"
         id="path31875" />
    </g>
    <g
       aria-label="5"
       id="text8278"
       style="font-size:11.9944px;line-height:1.25;font-family:'Century Gothic';-inkscape-font-specification:'Century Gothic';text-align:end;text-anchor:end;fill:#ffffff;stroke-width:0.264583">
      <path
         d="m 296.41514,186.0115 v 0.81993 h -3.06887 l -0.42754,2.34851 q 0.56224,-0.16398 1.0132,-0.16398 1.17718,0 1.93855,0.79064 0.76722,0.78479 0.76722,2.01469 0,0.84921 -0.3924,1.55786 -0.39239,0.70866 -1.06591,1.08934 -0.66765,0.37482 -1.54615,0.37482 -1.04834,0 -1.7687,-0.63837 -0.72037,-0.64423 -0.86093,-1.66329 h 0.88435 q 0.0996,0.49782 0.33383,0.80822 0.24012,0.3104 0.63252,0.50367 0.39825,0.18741 0.83164,0.18741 0.84921,0 1.4583,-0.64423 0.60909,-0.64423 0.60909,-1.61057 0,-0.87264 -0.55052,-1.41731 -0.55052,-0.54467 -1.47002,-0.54467 -0.76136,0 -1.84484,0.46268 l 0.7965,-4.27535 z"
         id="path31872" />
    </g>
    <g
       aria-label="5"
       id="text8384"
       style="font-size:42.3333px;line-height:1.25;font-family:'Century Gothic';-inkscape-font-specification:'Century Gothic';text-align:center;text-anchor:middle;fill:#ffffff;stroke-width:0.264583">
      <path
         d="m 278.9353,133.47386 v 2.89388 h -10.83138 l -1.50895,8.28889 q 1.98438,-0.57877 3.57601,-0.57877 4.15478,0 6.84195,2.79052 2.70785,2.76985 2.70785,7.11067 0,2.99723 -1.38493,5.49837 -1.38493,2.50114 -3.76204,3.84472 -2.35645,1.32292 -5.45703,1.32292 -3.70003,0 -6.24251,-2.25309 -2.54248,-2.27376 -3.03857,-5.87044 h 3.12126 q 0.35139,1.757 1.17822,2.85254 0.84749,1.09554 2.23242,1.77767 1.40559,0.66145 2.93522,0.66145 2.99723,0 5.14696,-2.27376 2.14974,-2.27376 2.14974,-5.6844 0,-3.07991 -1.94303,-5.00228 -1.94303,-1.92236 -5.18831,-1.92236 -2.68717,0 -6.51122,1.63298 l 2.81119,-15.08951 z"
         id="path31869" />
    </g>
  </g>
</svg>
