<?xml version="1.0" encoding="UTF-8" standalone="no"?>
<!-- Created with Inkscape (http://www.inkscape.org/) -->

<svg
   width="64mm"
   height="101.56771mm"
   viewBox="0 0 64 101.56771"
   version="1.1"
   id="svg7812"
   xmlns="http://www.w3.org/2000/svg"
   xmlns:svg="http://www.w3.org/2000/svg">
  <defs
     id="defs7809" />
  <g
     id="layer1"
     transform="translate(-237.77826,-98.275597)">
    <path
       id="rect8270"
       style="fill:#f2ca00;fill-opacity:1;stroke-width:4.99999;stroke-linecap:round;stroke-linejoin:round;stroke-miterlimit:0;stroke-dashoffset:117.165;paint-order:markers fill stroke"
       d="m 242.77826,98.275597 h 54 c 2.77,0 5,2.230003 5,5.000003 v 91.56771 c 0,2.77 -2.23,5 -5,5 h -54 c -2.77,0 -5,-2.23 -5,-5 V 103.2756 c 0,-2.77 2.23,-5.000003 5,-5.000003 z" />
    <g
       aria-label="7"
       id="text8274"
       style="font-size:11.9944px;line-height:1.25;font-family:'Century Gothic';-inkscape-font-specification:'Century Gothic';fill:#ffffff;stroke-width:0.264583">
      <path
         d="m 243.25851,103.49229 h 5.46424 l -4.60917,8.83181 -0.70865,-0.36311 3.98251,-7.65463 h -4.12893 z"
         id="path34143" />
    </g>
    <g
       aria-label="7"
       id="text8278"
       style="font-size:11.9944px;line-height:1.25;font-family:'Century Gothic';-inkscape-font-specification:'Century Gothic';text-align:end;text-anchor:end;fill:#ffffff;stroke-width:0.264583">
      <path
         d="m 291.37843,186.0115 h 5.46425 l -4.60918,8.83181 -0.70865,-0.36311 3.98252,-7.65463 h -4.12894 z"
         id="path34140" />
    </g>
    <g
       aria-label="7"
       id="text8384"
       style="font-size:42.3333px;line-height:1.25;font-family:'Century Gothic';-inkscape-font-specification:'Century Gothic';text-align:center;text-anchor:middle;fill:#ffffff;stroke-width:0.264583">
      <path
         d="m 261.15862,133.47386 h 19.28563 l -16.26773,31.1712 -2.50114,-1.28157 14.05598,-27.01642 h -14.57274 z"
         id="path34137" />
    </g>
  </g>
</svg>
