<?xml version="1.0" encoding="UTF-8" standalone="no"?>
<!-- Created with Inkscape (http://www.inkscape.org/) -->

<svg
   width="64mm"
   height="101.56771mm"
   viewBox="0 0 64 101.56771"
   version="1.1"
   id="svg7812"
   xmlns="http://www.w3.org/2000/svg"
   xmlns:svg="http://www.w3.org/2000/svg">
  <defs
     id="defs7809" />
  <g
     id="layer1"
     transform="translate(-267.26389,-152.26399)">
    <path
       id="rect3426"
       style="fill:#f2ca00;fill-opacity:1;stroke-width:4.99999;stroke-linecap:round;stroke-linejoin:round;stroke-miterlimit:0;stroke-dashoffset:117.165;paint-order:markers fill stroke"
       d="m 272.26389,152.26399 h 54 c 2.77,0 5,2.23 5,5 v 91.56771 c 0,2.77 -2.23,5 -5,5 h -54 c -2.77,0 -5,-2.23 -5,-5 v -91.56771 c 0,-2.77 2.23,-5 5,-5 z" />
    <g
       id="g2393"
       transform="matrix(0.72243297,0,0,0.72243297,239.57555,78.222523)">
      <path
         id="rect5044"
         style="fill:none;stroke:#ffffff;stroke-width:1.7;stroke-linecap:round;stroke-linejoin:round;stroke-miterlimit:0;stroke-dasharray:none;stroke-dashoffset:117.165;paint-order:markers fill stroke"
         d="m 83.367828,151.96137 10.318743,1e-5 -10e-7,10.31875 m -12.981683,17.40071 -3.833358,-3.83335 c -1.958685,-1.95869 -1.958685,-5.11238 0,-7.07107 l 16.815042,-16.81504" />
      <path
         id="path5048"
         style="fill:none;stroke:#ffffff;stroke-width:1.7;stroke-linecap:round;stroke-linejoin:round;stroke-miterlimit:0;stroke-dasharray:none;stroke-dashoffset:117.165;paint-order:markers fill stroke"
         d="m 81.874734,193.60793 -10.318743,-1e-5 10e-7,-10.31875 m 12.981683,-17.40071 3.833357,3.83335 c 1.958686,1.95869 1.958686,5.11239 0,7.07107 l -16.815041,16.81504" />
    </g>
    <g
       id="g2399"
       transform="matrix(0.36121648,0,0,0.36121649,246.72372,102.68008)">
      <path
         id="path2395"
         style="fill:none;stroke:#ffffff;stroke-width:1.7;stroke-linecap:round;stroke-linejoin:round;stroke-miterlimit:0;stroke-dasharray:none;stroke-dashoffset:117.165;paint-order:markers fill stroke"
         d="m 83.367828,151.96137 10.318743,1e-5 -10e-7,10.31875 m -12.981683,17.40071 -3.833358,-3.83335 c -1.958685,-1.95869 -1.958685,-5.11238 0,-7.07107 l 16.815042,-16.81504" />
      <path
         id="path2397"
         style="fill:none;stroke:#ffffff;stroke-width:1.7;stroke-linecap:round;stroke-linejoin:round;stroke-miterlimit:0;stroke-dasharray:none;stroke-dashoffset:117.165;paint-order:markers fill stroke"
         d="m 81.874734,193.60793 -10.318743,-1e-5 10e-7,-10.31875 m 12.981683,-17.40071 3.833357,3.83335 c 1.958686,1.95869 1.958686,5.11239 0,7.07107 l -16.815041,16.81504" />
    </g>
    <g
       id="g2405"
       transform="matrix(0.36121649,0,0,0.36121649,292.11572,178.5903)">
      <path
         id="path2401"
         style="fill:none;stroke:#ffffff;stroke-width:1.7;stroke-linecap:round;stroke-linejoin:round;stroke-miterlimit:0;stroke-dasharray:none;stroke-dashoffset:117.165;paint-order:markers fill stroke"
         d="m 83.367828,151.96137 10.318743,1e-5 -10e-7,10.31875 m -12.981683,17.40071 -3.833358,-3.83335 c -1.958685,-1.95869 -1.958685,-5.11238 0,-7.07107 l 16.815042,-16.81504" />
      <path
         id="path2403"
         style="fill:none;stroke:#ffffff;stroke-width:1.7;stroke-linecap:round;stroke-linejoin:round;stroke-miterlimit:0;stroke-dasharray:none;stroke-dashoffset:117.165;paint-order:markers fill stroke"
         d="m 81.874734,193.60793 -10.318743,-1e-5 10e-7,-10.31875 m 12.981683,-17.40071 3.833357,3.83335 c 1.958686,1.95869 1.958686,5.11239 0,7.07107 l -16.815041,16.81504" />
    </g>
  </g>
</svg>
