<?xml version="1.0" encoding="UTF-8" standalone="no"?>
<!-- Created with Inkscape (http://www.inkscape.org/) -->

<svg
   width="64mm"
   height="101.56771mm"
   viewBox="0 0 64 101.56771"
   version="1.1"
   id="svg7812"
   xmlns="http://www.w3.org/2000/svg"
   xmlns:svg="http://www.w3.org/2000/svg">
  <defs
     id="defs7809" />
  <g
     id="layer1"
     transform="translate(-237.77826,-98.275597)">
    <path
       id="rect8270"
       style="fill:#f2ca00;fill-opacity:1;stroke-width:4.99999;stroke-linecap:round;stroke-linejoin:round;stroke-miterlimit:0;stroke-dashoffset:117.165;paint-order:markers fill stroke"
       d="m 242.77826,98.275597 h 54 c 2.77,0 5,2.230003 5,5.000003 v 91.56771 c 0,2.77 -2.23,5 -5,5 h -54 c -2.77,0 -5,-2.23 -5,-5 V 103.2756 c 0,-2.77 2.23,-5.000003 5,-5.000003 z" />
    <g
       aria-label="3"
       id="text8274"
       style="font-size:11.9944px;line-height:1.25;font-family:'Century Gothic';-inkscape-font-specification:'Century Gothic';fill:#ffffff;stroke-width:0.264583">
      <path
         d="m 243.98473,105.4894 h -0.87849 q 0.24012,-1.06591 0.91949,-1.63986 0.67937,-0.57395 1.60472,-0.57395 0.67351,0 1.25332,0.3104 0.58566,0.30455 0.90192,0.82579 0.32212,0.52124 0.32212,1.08934 0,1.11276 -1.10691,1.76284 0.62081,0.25184 1.01906,0.73794 0.56224,0.68523 0.56224,1.53444 0,0.73208 -0.38654,1.39974 -0.38654,0.6618 -1.0542,1.02491 -0.66766,0.36311 -1.49344,0.36311 -1.11276,0 -1.85656,-0.63837 -0.74379,-0.64423 -0.9722,-1.88584 h 0.84336 q 0.22255,0.8375 0.63837,1.21232 0.53296,0.47439 1.35874,0.47439 0.93706,0 1.50516,-0.56223 0.56809,-0.56224 0.56809,-1.31775 0,-0.50367 -0.28697,-0.94292 -0.28112,-0.43925 -0.76137,-0.6618 -0.47438,-0.22255 -1.47587,-0.27526 v -0.79065 q 0.59152,0 1.07762,-0.20498 0.4861,-0.21084 0.7028,-0.53295 0.22255,-0.32212 0.22255,-0.7028 0,-0.56224 -0.45096,-0.9722 -0.4451,-0.40997 -1.13033,-0.40997 -0.55638,0 -0.96049,0.31626 -0.40411,0.3104 -0.68523,1.06005 z"
         id="path30333" />
    </g>
    <g
       aria-label="3"
       id="text8278"
       style="font-size:11.9944px;line-height:1.25;font-family:'Century Gothic';-inkscape-font-specification:'Century Gothic';text-align:end;text-anchor:end;fill:#ffffff;stroke-width:0.264583">
      <path
         d="m 292.10466,188.00861 h -0.8785 q 0.24012,-1.06591 0.91949,-1.63986 0.67937,-0.57395 1.60472,-0.57395 0.67352,0 1.25332,0.31041 0.58567,0.30454 0.90193,0.82578 0.32211,0.52124 0.32211,1.08934 0,1.11276 -1.1069,1.76285 0.6208,0.25183 1.01905,0.73793 0.56224,0.68523 0.56224,1.53444 0,0.73208 -0.38654,1.39974 -0.38654,0.6618 -1.05419,1.02491 -0.66766,0.36311 -1.49345,0.36311 -1.11276,0 -1.85655,-0.63837 -0.7438,-0.64423 -0.9722,-1.88584 h 0.84335 q 0.22255,0.8375 0.63838,1.21233 0.53295,0.47438 1.35874,0.47438 0.93706,0 1.50515,-0.56223 0.5681,-0.56224 0.5681,-1.31775 0,-0.50367 -0.28698,-0.94292 -0.28112,-0.43925 -0.76136,-0.6618 -0.47439,-0.22255 -1.47587,-0.27526 v -0.79065 q 0.59152,0 1.07762,-0.20498 0.4861,-0.21084 0.70279,-0.53295 0.22256,-0.32212 0.22256,-0.7028 0,-0.56224 -0.45096,-0.9722 -0.44511,-0.40997 -1.13034,-0.40997 -0.55638,0 -0.96049,0.31626 -0.4041,0.3104 -0.68522,1.06005 z"
         id="path30330" />
    </g>
    <g
       aria-label="3"
       id="text8384"
       style="font-size:42.3333px;line-height:1.25;font-family:'Century Gothic';-inkscape-font-specification:'Century Gothic';text-align:center;text-anchor:middle;fill:#ffffff;stroke-width:0.264583">
      <path
         d="m 263.72177,140.52252 h -3.10059 q 0.84749,-3.76204 3.24528,-5.78776 2.39778,-2.02571 5.66373,-2.02571 2.37712,0 4.4235,1.09554 2.06706,1.07487 3.18327,2.91455 1.13688,1.83968 1.13688,3.84472 0,3.92741 -3.90674,6.22184 2.19108,0.88883 3.59668,2.60449 1.98437,2.41845 1.98437,5.41568 0,2.58382 -1.36425,4.94027 -1.36426,2.33577 -3.7207,3.61735 -2.35645,1.28157 -5.271,1.28157 -3.9274,0 -6.55256,-2.25309 -2.62516,-2.27376 -3.43132,-6.65592 h 2.97657 q 0.78548,2.95589 2.25309,4.2788 1.88102,1.67432 4.79557,1.67432 3.30728,0 5.31233,-1.98437 2.00504,-1.98438 2.00504,-4.65088 0,-1.77767 -1.01285,-3.32796 -0.99219,-1.55029 -2.68718,-2.33577 -1.67431,-0.78548 -5.20898,-0.97152 v -2.79052 q 2.08773,0 3.80338,-0.72347 1.71566,-0.74414 2.48047,-1.88102 0.78548,-1.13688 0.78548,-2.48047 0,-1.98437 -1.59163,-3.43131 -1.57096,-1.44694 -3.98942,-1.44694 -1.9637,0 -3.38997,1.11621 -1.42627,1.09554 -2.41845,3.74137 z"
         id="path30327" />
    </g>
  </g>
</svg>
