<?xml version="1.0" encoding="UTF-8" standalone="no"?>
<!-- Created with Inkscape (http://www.inkscape.org/) -->

<svg
   width="64mm"
   height="101.56771mm"
   viewBox="0 0 64 101.56771"
   version="1.1"
   id="svg7812"
   xmlns="http://www.w3.org/2000/svg"
   xmlns:svg="http://www.w3.org/2000/svg">
  <defs
     id="defs7809" />
  <g
     id="layer1"
     transform="translate(-237.77826,-98.275597)">
    <path
       id="rect8270"
       style="fill:#f2ca00;fill-opacity:1;stroke-width:4.99999;stroke-linecap:round;stroke-linejoin:round;stroke-miterlimit:0;stroke-dashoffset:117.165;paint-order:markers fill stroke"
       d="m 242.77826,98.275597 h 54 c 2.77,0 5,2.230003 5,5.000003 v 91.56771 c 0,2.77 -2.23,5 -5,5 h -54 c -2.77,0 -5,-2.23 -5,-5 V 103.2756 c 0,-2.77 2.23,-5.000003 5,-5.000003 z" />
    <g
       aria-label="9"
       id="text8274"
       style="font-size:11.9944px;line-height:1.25;font-family:'Century Gothic';-inkscape-font-specification:'Century Gothic';fill:#ffffff;stroke-width:0.264583">
      <path
         d="m 244.69924,112.3241 -0.70865,-0.45682 2.32509,-3.52569 q -0.46854,0.15227 -0.8785,0.15227 -1.02491,0 -1.73942,-0.73794 -0.71451,-0.74379 -0.71451,-1.82727 0,-0.74379 0.34554,-1.34117 0.34554,-0.59738 0.97806,-0.95463 0.63837,-0.35726 1.3646,-0.35726 0.71451,0 1.31774,0.34554 0.60909,0.34555 0.95463,0.96635 0.34554,0.6208 0.34554,1.3236 0,0.53296 -0.21669,1.11862 -0.21084,0.57981 -0.76137,1.39974 z m 0.93707,-4.58575 q 0.7555,0 1.2826,-0.52709 0.53295,-0.53296 0.53295,-1.28261 0,-0.74965 -0.53295,-1.27675 -0.5271,-0.53295 -1.2826,-0.53295 -0.74965,0 -1.28261,0.53295 -0.5271,0.5271 -0.5271,1.27675 0,0.74965 0.5271,1.28261 0.53296,0.52709 1.28261,0.52709 z"
         id="path35685" />
    </g>
    <g
       aria-label="9"
       id="text8278"
       style="font-size:11.9944px;line-height:1.25;font-family:'Century Gothic';-inkscape-font-specification:'Century Gothic';text-align:end;text-anchor:end;fill:#ffffff;stroke-width:0.264583">
      <path
         d="m 292.81917,194.84331 -0.70866,-0.45681 2.32509,-3.5257 q -0.46853,0.15227 -0.8785,0.15227 -1.02491,0 -1.73942,-0.73794 -0.71451,-0.74379 -0.71451,-1.82727 0,-0.74379 0.34554,-1.34117 0.34555,-0.59738 0.97806,-0.95463 0.63838,-0.35726 1.3646,-0.35726 0.71451,0 1.31774,0.34555 0.60909,0.34554 0.95464,0.96634 0.34554,0.6208 0.34554,1.3236 0,0.53296 -0.2167,1.11862 -0.21084,0.57981 -0.76136,1.39974 z m 0.93706,-4.58575 q 0.75551,0 1.2826,-0.52709 0.53296,-0.53296 0.53296,-1.28261 0,-0.74965 -0.53296,-1.27675 -0.52709,-0.53295 -1.2826,-0.53295 -0.74965,0 -1.2826,0.53295 -0.5271,0.5271 -0.5271,1.27675 0,0.74965 0.5271,1.28261 0.53295,0.52709 1.2826,0.52709 z"
         id="path35682" />
    </g>
    <g
       aria-label="9"
       id="text8384"
       style="font-size:42.3333px;line-height:1.25;font-family:'Century Gothic';-inkscape-font-specification:'Century Gothic';text-align:center;text-anchor:middle;fill:#ffffff;stroke-width:0.264583">
      <path
         d="m 266.24357,164.64506 -2.50113,-1.6123 8.20621,-12.44368 q -1.65365,0.53744 -3.10059,0.53744 -3.61734,0 -6.13915,-2.6045 -2.52181,-2.62516 -2.52181,-6.44921 0,-2.62516 1.21956,-4.73356 1.21957,-2.10839 3.45199,-3.3693 2.25309,-1.2609 4.81624,-1.2609 2.5218,0 4.65087,1.21956 2.14974,1.21956 3.3693,3.41064 1.21957,2.19108 1.21957,4.67155 0,1.88102 -0.76482,3.94808 -0.74414,2.04638 -2.68717,4.94026 z m 3.30729,-16.18505 q 2.6665,0 4.52685,-1.86035 1.88103,-1.88102 1.88103,-4.52685 0,-2.64583 -1.88103,-4.50618 -1.86035,-1.88102 -4.52685,-1.88102 -2.64583,0 -4.52685,1.88102 -1.86035,1.86035 -1.86035,4.50618 0,2.64583 1.86035,4.52685 1.88102,1.86035 4.52685,1.86035 z"
         id="path35679" />
    </g>
  </g>
</svg>
